<svg width="17" height="17" viewBox="0 0 17 17" fill="none" xmlns="http://www.w3.org/2000/svg">
<g id="globe">
<path id="icon" d="M8.33333 1V15.6667M8.33333 1C6.30829 1 4.66699 4.28325 4.66699 8.33333C4.66699 12.3834 6.30829 15.6667 8.33333 15.6667M8.33333 1C10.3584 1 12.0003 4.28325 12.0003 8.33333C12.0003 12.3834 10.3584 15.6667 8.33333 15.6667M8.33333 1C4.28325 1 1 4.28325 1 8.33333M8.33333 1C12.3834 1 15.6667 4.28325 15.6667 8.33333M8.33333 15.6667C12.3834 15.6667 15.6667 12.3834 15.6667 8.33333M8.33333 15.6667C4.28325 15.6667 1 12.3834 1 8.33333M1 8.33333H15.6667M1.98133 4.66667H14.6853M1.98133 12H14.6853" stroke="black" stroke-width="0.7" stroke-miterlimit="10" stroke-linecap="round" stroke-linejoin="round"/>
</g>
</svg>
